<?xml version="1.0" standalone="no"?>
<!DOCTYPE svg PUBLIC "-//W3C//DTD SVG 20010904//EN"
 "http://www.w3.org/TR/2001/REC-SVG-20010904/DTD/svg10.dtd">
<svg version="1.0" xmlns="http://www.w3.org/2000/svg"
 width="2673.000000pt" height="2673.000000pt" viewBox="0 0 2673.000000 2673.000000"
 preserveAspectRatio="xMidYMid meet">
<metadata>
Created by potrace 1.14, written by Peter Selinger 2001-2017
</metadata>
<g transform="translate(0.000000,2673.000000) scale(0.100000,-0.100000)"
fill="#000000" stroke="none">
<path d="M13035 26529 c-181 -105 -355 -204 -385 -221 -30 -17 -67 -39 -82
-49 -14 -11 -29 -19 -32 -19 -4 0 -23 -11 -44 -23 -32 -21 -554 -323 -681
-395 -25 -14 -68 -38 -95 -55 -28 -16 -69 -40 -91 -52 -22 -13 -206 -119 -410
-237 -203 -118 -390 -226 -415 -240 -37 -21 -378 -218 -840 -486 -52 -30 -108
-62 -125 -72 -16 -9 -106 -61 -200 -115 -93 -54 -186 -107 -205 -118 -19 -10
-75 -43 -125 -72 -93 -55 -544 -315 -650 -376 -33 -19 -68 -38 -77 -44 -16
-10 -108 -63 -213 -123 -185 -107 -647 -375 -748 -434 -67 -39 -143 -82 -169
-97 -25 -14 -73 -41 -105 -60 -32 -19 -78 -45 -103 -59 -25 -14 -57 -33 -72
-43 -14 -11 -28 -19 -31 -19 -3 0 -54 -29 -114 -63 -133 -79 -608 -353 -683
-396 -59 -34 -191 -110 -218 -126 -9 -5 -60 -34 -112 -64 -52 -30 -120 -69
-150 -87 -30 -18 -170 -98 -310 -179 -276 -159 -389 -224 -575 -333 -66 -38
-137 -79 -158 -91 -21 -12 -107 -61 -190 -110 -84 -48 -172 -99 -197 -113 -25
-14 -117 -67 -205 -118 -88 -51 -216 -125 -285 -165 -69 -39 -160 -93 -203
-118 -43 -26 -80 -47 -82 -47 -1 0 -65 -37 -141 -81 -77 -45 -157 -91 -179
-103 -22 -13 -112 -64 -200 -116 -88 -51 -180 -104 -205 -118 -25 -13 -49 -28
-55 -32 -5 -4 -86 -51 -180 -105 -93 -54 -183 -105 -200 -115 -102 -59 -571
-330 -625 -360 l-65 -38 0 -6668 c-1 -3668 1 -6677 3 -6686 2 -10 8 -18 12
-18 5 0 53 -26 107 -58 54 -32 105 -61 113 -65 8 -4 29 -16 46 -26 30 -18 586
-340 654 -378 19 -11 116 -67 215 -125 227 -132 646 -373 705 -406 25 -14 50
-28 55 -32 6 -4 26 -17 45 -28 19 -10 105 -60 190 -109 239 -138 421 -244 460
-266 44 -24 529 -305 590 -341 25 -15 53 -29 63 -33 9 -3 17 -9 17 -14 0 -5 4
-9 10 -9 5 0 89 -46 187 -103 211 -123 633 -367 683 -395 19 -10 176 -101 348
-201 173 -100 344 -199 380 -220 37 -21 171 -98 297 -171 127 -73 244 -141
262 -151 17 -10 50 -29 72 -43 22 -15 43 -26 45 -26 2 0 50 -27 106 -60 56
-33 103 -60 105 -60 2 0 32 -17 66 -38 58 -35 527 -306 639 -370 25 -14 73
-43 108 -64 34 -21 64 -38 66 -38 2 0 50 -27 105 -60 56 -33 103 -60 106 -60
3 0 53 -29 111 -65 59 -36 108 -65 111 -65 2 0 45 -24 96 -54 51 -30 108 -63
127 -74 19 -11 76 -43 125 -72 50 -29 106 -62 125 -72 56 -32 424 -245 550
-318 63 -37 135 -79 160 -93 25 -13 113 -64 195 -112 83 -48 168 -97 190 -110
91 -51 531 -306 545 -315 8 -6 22 -13 30 -17 8 -3 39 -21 68 -40 29 -18 54
-33 56 -33 4 0 133 -73 176 -100 24 -14 349 -202 405 -233 27 -16 71 -42 98
-58 26 -16 49 -29 52 -29 3 0 165 -95 205 -120 8 -6 22 -13 30 -17 8 -4 31
-16 50 -28 19 -12 55 -33 80 -47 25 -14 117 -67 205 -118 184 -107 194 -113
295 -170 109 -62 482 -279 500 -290 8 -5 34 -19 58 -32 24 -12 46 -26 48 -30
3 -4 24 3 47 16 48 26 567 326 757 436 195 113 376 218 480 278 52 30 109 62
125 72 17 10 64 37 105 60 41 24 107 62 145 85 39 23 77 45 85 48 8 4 29 15
45 26 17 10 107 62 200 116 94 54 224 130 290 168 66 38 140 81 164 95 25 14
67 38 93 53 27 16 53 29 58 29 6 0 10 5 10 10 0 6 4 10 9 10 6 0 60 29 121 65
61 36 130 76 153 89 23 13 184 106 357 206 173 100 335 194 360 208 25 14 74
42 109 64 34 21 64 38 66 38 2 0 43 23 92 52 105 61 330 191 393 226 25 14 69
40 98 59 29 18 54 33 56 33 2 0 66 36 142 81 77 44 162 94 189 109 28 15 149
85 270 155 121 70 276 160 345 200 69 39 168 97 220 127 52 30 172 99 265 153
94 54 208 121 255 148 47 27 104 60 127 72 23 12 48 27 55 32 7 6 36 23 63 37
52 28 57 31 142 84 30 17 55 32 58 32 2 0 53 29 112 64 106 62 686 397 813
470 36 20 72 41 80 46 8 6 170 99 360 209 190 109 361 208 380 220 19 11 42
24 50 28 8 4 43 24 77 44 34 21 83 50 110 64 26 14 64 35 83 46 19 12 107 63
195 114 154 89 207 120 485 280 69 40 170 98 225 130 55 32 172 99 260 150 88
51 176 102 195 113 19 12 46 27 60 35 15 7 100 56 190 109 390 227 532 308
536 308 3 0 17 8 32 19 24 16 293 173 411 239 24 13 104 60 178 103 75 43 138
79 142 79 3 1 16 9 29 19 l22 19 0 6676 0 6676 -42 26 c-74 43 -301 174 -353
204 -27 15 -90 51 -140 80 -49 29 -110 64 -135 78 -25 14 -57 33 -72 43 -14
11 -28 19 -31 19 -3 0 -110 61 -237 135 -128 74 -234 135 -235 135 -2 0 -33
19 -71 41 -37 23 -88 53 -113 67 -25 14 -58 32 -73 41 -30 18 -203 118 -258
149 -19 11 -91 52 -160 92 -69 40 -138 81 -155 90 -16 10 -102 59 -190 110
-88 51 -173 101 -190 110 -16 10 -118 68 -225 130 -220 127 -580 334 -625 360
-16 10 -84 49 -150 87 -172 100 -756 438 -796 461 -76 43 -355 203 -369 212
-8 5 -46 27 -85 49 -38 23 -92 54 -120 71 -27 16 -56 33 -64 37 -8 3 -91 51
-185 106 -94 54 -189 109 -211 122 -22 12 -152 87 -290 167 -137 80 -270 156
-295 170 -25 14 -110 63 -190 110 -80 47 -278 162 -440 255 -162 93 -441 254
-620 358 -179 103 -341 197 -360 208 -19 10 -91 52 -160 92 -69 40 -145 84
-170 98 -25 14 -139 80 -255 147 -115 68 -230 134 -255 148 -67 37 -214 122
-312 181 -48 28 -90 51 -93 51 -4 0 -19 8 -33 19 -15 10 -119 71 -232 136
-240 138 -350 202 -515 298 -66 38 -136 78 -155 89 -19 11 -64 37 -100 58 -36
21 -82 47 -102 59 -43 24 -31 17 -323 186 -121 70 -235 136 -253 146 -18 11
-103 60 -188 110 -85 49 -176 102 -202 116 -26 14 -126 72 -222 128 -96 56
-202 117 -235 136 -33 19 -69 39 -80 46 -11 7 -27 16 -35 20 -8 4 -47 27 -87
51 -39 23 -73 42 -75 42 -2 0 -151 -86 -333 -191z"/>
</g>
</svg>
